<svg width="354" height="424" viewBox="0 0 354 424" fill="none" xmlns="http://www.w3.org/2000/svg">
<path d="M324.39 0H139.65L0 139.67L139.65 110.91C139.651 118.505 136.641 125.79 131.28 131.17L30.11 232.69C32.7478 230.372 36.1386 229.093 39.65 229.09C47.5 229.09 53.87 235.18 53.87 242.68C53.87 250.18 47.5 256.26 39.65 256.26C31.8 256.26 25.4401 250.19 25.4401 242.68C25.4655 239.428 26.6945 236.3 28.89 233.9L0.0200195 262.9V395.48C0.0200195 410.68 13.02 423.11 28.92 423.11H324.4C340.31 423.11 353.31 410.68 353.31 395.48V27.63C353.3 12.44 340.28 0 324.39 0ZM39.65 392.15C31.81 392.15 25.4401 386.08 25.4401 378.58C25.4401 371.08 31.81 364.98 39.65 364.98C47.49 364.98 53.87 371.07 53.87 378.58C53.87 386.09 47.48 392.15 39.65 392.15ZM39.65 324.23C31.81 324.23 25.4401 318.15 25.4401 310.65C25.4401 303.15 31.79 297.09 39.65 297.09C47.51 297.09 53.87 303.17 53.87 310.68C53.87 318.19 47.48 324.23 39.65 324.23Z" fill="#F2F7F9"/>
<path d="M303.14 180.76H93.6401V194.06H303.14V180.76Z" fill="#DADFE2"/>
<path d="M303.14 236.19H93.6401V249.49H303.14V236.19Z" fill="#DADFE2"/>
<path d="M303.14 291.61H93.6401V304.91H303.14V291.61Z" fill="#DADFE2"/>
<path d="M303.14 347.04H93.6401V360.34H303.14V347.04Z" fill="#DADFE2"/>
<path d="M303.14 69.91H176.65V83.21H303.14V69.91Z" fill="#DADFE2"/>
<path d="M303.14 125.34H176.65V138.64H303.14V125.34Z" fill="#DADFE2"/>
<path d="M30.11 232.69L131.29 131.17C136.651 125.79 139.661 118.505 139.66 110.91L0 139.67V262.9L28.87 233.9C29.2589 233.472 29.6729 233.068 30.11 232.69V232.69ZM39.63 161.19C47.48 161.19 53.85 167.27 53.85 174.78C53.85 182.29 47.48 188.36 39.63 188.36C31.78 188.36 25.42 182.28 25.42 174.78C25.42 167.28 31.79 161.19 39.65 161.19H39.63Z" fill="#DDE2E5"/>
<path d="M139.65 0L0 139.66H110.9C118.524 139.657 125.835 136.627 131.226 131.236C136.618 125.845 139.647 118.534 139.65 110.91V0Z" fill="#FD8A29"/>
</svg>
