<svg width="367" height="424" viewBox="0 0 367 424" fill="none" xmlns="http://www.w3.org/2000/svg">
<path d="M229.93 321.62C225 335.23 279.37 273.98 265.27 281.28L24.1698 0C11.7572 20.6855 6.6162 44.9269 9.56424 68.87C12.5123 92.8131 23.3801 115.083 40.4399 132.14L229.93 321.62Z" fill="#E9EEF1"/>
<path d="M219.92 349.59C219.912 335.044 224.218 320.821 232.294 308.722C240.37 296.624 251.853 287.192 265.29 281.619C278.727 276.047 293.514 274.585 307.782 277.418C322.05 280.251 335.158 287.252 345.447 297.535C355.735 307.818 362.743 320.922 365.584 335.188C368.425 349.455 366.971 364.243 361.406 377.683C355.841 391.123 346.415 402.611 334.321 410.694C322.226 418.776 308.007 423.09 293.46 423.09C273.968 423.064 255.281 415.31 241.496 401.529C227.71 387.747 219.952 369.062 219.92 349.57M252.48 349.57C252.48 357.679 254.885 365.606 259.39 372.348C263.895 379.091 270.298 384.346 277.79 387.449C285.282 390.552 293.525 391.364 301.479 389.782C309.432 388.2 316.737 384.295 322.471 378.561C328.205 372.827 332.11 365.522 333.692 357.569C335.274 349.616 334.462 341.372 331.359 333.88C328.256 326.388 323.001 319.985 316.258 315.48C309.516 310.975 301.589 308.57 293.48 308.57C282.606 308.57 272.178 312.89 264.489 320.579C256.8 328.268 252.48 338.696 252.48 349.57Z" fill="#FD8A29"/>
<path d="M204.81 210.76L164.2 255.89L202.93 294.64L242.65 254.91L204.81 210.76Z" fill="#CCD1D3"/>
<path d="M326.54 132.14C343.6 115.083 354.467 92.8131 357.416 68.87C360.364 44.9269 355.223 20.6855 342.81 0L101.73 281.28C87.63 273.98 141.98 335.23 137.07 321.62L326.54 132.14Z" fill="#F2F7F9"/>
<path d="M73.51 276.09C54.0134 276.116 35.3236 283.877 21.5421 297.667C7.76062 311.458 0.0132252 330.153 0 349.65C0 351.04 -4.88013e-06 352.39 0.119995 353.74C1.17046 372.5 9.36305 390.147 23.0157 403.056C36.6684 415.966 54.7453 423.159 73.535 423.159C92.3248 423.159 110.402 415.966 124.054 403.056C137.707 390.147 145.899 372.5 146.95 353.74C147.03 352.39 147.07 351.04 147.07 349.65C147.051 330.146 139.295 311.447 125.504 297.656C111.713 283.864 93.0136 276.108 73.51 276.09V276.09ZM114.29 353.66V353.83C113.23 363.906 108.477 373.232 100.948 380.011C93.4186 386.789 83.6462 390.541 73.515 390.541C63.3838 390.541 53.6113 386.789 46.082 380.011C38.5528 373.232 33.7999 363.906 32.74 353.83V353.66C32.61 352.35 32.53 351 32.53 349.66C32.53 338.786 36.8496 328.358 44.5386 320.669C52.2276 312.98 62.6562 308.66 73.53 308.66C84.4039 308.66 94.8324 312.98 102.521 320.669C110.21 328.358 114.53 338.786 114.53 349.66C114.49 350.95 114.41 352.3 114.29 353.61V353.66Z" fill="#FD8A29"/>
<path d="M183.49 210.01C187.115 210.01 190.659 211.085 193.674 213.099C196.688 215.113 199.037 217.976 200.425 221.325C201.812 224.675 202.175 228.36 201.468 231.916C200.761 235.472 199.015 238.738 196.451 241.301C193.888 243.865 190.622 245.611 187.066 246.318C183.51 247.025 179.825 246.662 176.475 245.275C173.126 243.887 170.263 241.538 168.249 238.524C166.235 235.509 165.16 231.965 165.16 228.34C165.159 225.933 165.632 223.548 166.553 221.324C167.473 219.099 168.824 217.078 170.526 215.376C172.228 213.673 174.25 212.323 176.474 211.403C178.698 210.482 181.083 210.009 183.49 210.01" fill="#DBE0E2"/>
</svg>
