<svg width="419" height="440" viewBox="0 0 419 440" fill="none" xmlns="http://www.w3.org/2000/svg">
<path d="M9.08257 384.67C19.0826 416.95 37.0826 439.54 59.1726 439.54H354.233C383.113 439.54 404.233 405.65 413.233 362.07C422.673 316.88 419.233 261.47 398.313 223.28C396.533 219.78 394.483 216.55 392.423 213.28L292.643 67C262.953 23.69 227.093 0 190.143 0C170.023 0 150.313 7.00001 131.843 20.17C123.959 25.6786 116.666 31.9889 110.083 39C85.7226 64.28 64.3726 101.4 48.4926 147.4L10.3126 257.98C-3.91742 299.13 -2.54743 348.09 9.08257 384.67Z" fill="#FD8A29"/>
<path d="M9.08257 384.67C19.0826 416.95 37.0826 439.54 59.1726 439.54H92.2926L80.1126 229.73L129.423 116.89L131.843 20.19C123.959 25.6986 116.666 32.0089 110.083 39.02C85.7226 64.3 64.3726 101.42 48.4926 147.42L10.3126 257.98C-3.91742 299.13 -2.54743 348.09 9.08257 384.67Z" fill="#EC772A"/>
<path d="M205.603 330.74L290.832 334.65L354.223 439.56H149.823L205.603 330.74Z" fill="#C8601A"/>
<path d="M149.863 439.54H59.1725C37.1725 439.54 19.0825 416.92 9.09253 384.67L80.0925 229.72L205.573 330.72L149.863 439.54Z" fill="#D8671D"/>
<path d="M290.863 334.65C290.863 334.65 379.313 242.91 398.333 223.28C419.273 261.47 422.693 316.88 413.253 362.07C404.253 405.63 383.153 439.56 354.253 439.56" fill="#E77B2A"/>
</svg>
